<svg width="529" height="158" viewBox="0 0 529 158" fill="none" xmlns="http://www.w3.org/2000/svg">
<g clip-path="url(#clip0_1_3)">
<path d="M495.04 157.06H502.25V135.98L518.3 157.06H524.51V123.89H517.3V144.32L501.77 123.89H495.04V157.06ZM470.73 150.9C464.87 150.9 460.69 146.17 460.69 140.47V140.38C460.69 134.7 464.78 130.06 470.64 130.06C476.5 130.06 480.7 134.79 480.7 140.47V140.56C480.7 146.25 476.61 150.9 470.73 150.9ZM470.64 157.63C480.88 157.63 488.31 149.9 488.31 140.47V140.38C488.31 130.95 480.97 123.33 470.73 123.33C460.49 123.33 453.07 131.04 453.07 140.47V140.56C453.07 149.99 460.41 157.62 470.63 157.62M438.7 157.05H446V123.88H438.7V157.05ZM415.16 157.05H422.44V130.61H432.53V123.88H405.06V130.61H415.15V157.05H415.16ZM387.76 157.62C394.16 157.62 397.95 155.35 401.37 151.7L396.73 147C394.12 149.37 391.79 150.88 388 150.88C382.32 150.88 378.39 146.15 378.39 140.45V140.36C378.39 134.68 382.42 130.04 388 130.04C391.33 130.04 393.93 131.45 396.49 133.77L401.13 128.41C398.06 125.38 394.31 123.31 388.06 123.31C377.87 123.31 370.75 131.02 370.75 140.45V140.54C370.75 150.08 378.02 157.6 387.76 157.6M350.01 157.54C358.92 157.54 364.56 152.62 364.56 142.58V123.85H357.26V142.86C357.26 148.11 354.56 150.83 350.1 150.83C345.64 150.83 342.95 148.02 342.95 142.62V123.85H335.67V142.8C335.67 152.56 341.11 157.54 350.02 157.54M308.99 139.98V130.46H316.24C319.79 130.46 321.97 132.07 321.97 135.19V135.28C321.97 138.07 319.94 139.98 316.39 139.98H308.99ZM301.69 157.03H308.99V146.42H314.72L321.82 157.03H330.36L322.24 145.2C326.46 143.63 329.36 140.26 329.36 134.92V134.81C329.36 131.69 328.36 129.08 326.51 127.23C324.33 125.07 321.06 123.87 316.84 123.87H301.68V157.04L301.69 157.03ZM278.49 157.03H285.77V130.59H295.86V123.86H268.39V130.59H278.48V157.03H278.49ZM252.72 157.51C259.86 157.51 264.89 153.81 264.89 147.23V147.14C264.89 141.35 261.1 138.93 254.37 137.19C248.64 135.71 247.22 135.01 247.22 132.83V132.74C247.22 131.13 248.7 129.84 251.49 129.84C254.28 129.84 257.17 131.08 260.11 133.11L263.9 127.62C260.54 124.92 256.41 123.4 251.59 123.4C244.82 123.4 239.98 127.38 239.98 133.4V133.49C239.98 140.07 244.29 141.92 250.98 143.62C256.53 145.04 257.65 145.99 257.65 147.84V147.93C257.65 149.87 255.86 151.05 252.86 151.05C249.07 151.05 245.95 149.5 242.97 147.04L238.64 152.2C242.63 155.75 247.7 157.51 252.73 157.51M203.25 157.03H210.46V135.95L226.51 157.03H232.72V123.86H225.53V144.29L209.98 123.86H203.25V157.03ZM178.96 150.87C173.08 150.87 168.9 146.14 168.9 140.44V140.35C168.9 134.67 172.99 130.03 178.85 130.03C184.71 130.03 188.91 134.76 188.91 140.44V140.53C188.91 146.22 184.82 150.87 178.96 150.87ZM178.85 157.6C189.09 157.6 196.52 149.87 196.52 140.44V140.35C196.52 130.92 189.18 123.3 178.96 123.3C168.74 123.3 161.29 131.01 161.29 140.44V140.53C161.29 149.96 168.63 157.59 178.85 157.59M144.04 157.59C150.44 157.59 154.23 155.32 157.63 151.67L152.99 146.97C150.38 149.34 148.07 150.85 144.28 150.85C138.59 150.85 134.67 146.12 134.67 140.42V140.33C134.67 134.65 138.68 130.01 144.28 130.01C147.59 130.01 150.2 131.42 152.77 133.74L157.41 128.38C154.32 125.35 150.59 123.28 144.32 123.28C134.13 123.28 127.03 130.99 127.03 140.42V140.51C127.03 150.05 134.28 157.57 144.04 157.57" fill="#231F20"/>
<path d="M127 103.98H230.98V80.87H127V103.98ZM127 63.55H230.98V40.44H127V63.55ZM127 23.12H230.98V0H127V23.11V23.12Z" fill="#F15A29"/>
<path d="M109.93 86.13V58.23C109.93 48.38 101.92 40.52 92.07 40.52H26.14C24.49 40.52 23.16 39.19 23.16 37.54V26.17C23.16 24.52 24.49 23.19 26.14 23.19H108.41V0H17.86C8.01 0 0 8.01 0 17.87V45.77C0 55.62 8.01 63.63 17.86 63.63H83.79C85.44 63.63 86.77 64.81 86.77 66.46V77.83C86.77 79.48 85.44 80.81 83.79 80.81H1.52V103.99H92.08C101.93 103.99 109.94 95.98 109.94 86.13M248.05 103.99H271.16V0H248.05V103.98V103.99ZM378.17 37.54C378.17 39.19 376.84 40.52 375.19 40.52H311.31V23.2H375.19C376.84 23.2 378.17 24.53 378.17 26.18V37.55V37.54ZM401.34 45.77V17.87C401.33 8.01 393.32 0 383.47 0H288.22V103.98H311.31V63.62H383.47C393.32 63.62 401.33 55.61 401.33 45.76M505.36 37.53C505.36 39.18 504.03 40.51 502.38 40.51H438.52V23.19H502.38C504.03 23.19 505.36 24.52 505.36 26.17V37.54V37.53ZM528.53 45.76V17.86C528.53 8.01 520.52 0 510.67 0H415.42V103.98H438.53V63.62H510.67C520.52 63.62 528.53 55.61 528.53 45.76Z" fill="#F15A29"/>
</g>
<defs>
<clipPath id="clip0_1_3">
<rect width="528.53" height="157.63" fill="white"/>
</clipPath>
</defs>
</svg>
