<svg xmlns="http://www.w3.org/2000/svg" width="323.501" height="288.346" viewBox="0 0 323.501 288.346">
  <g id="Group_1" data-name="Group 1" transform="translate(-308.999 -417.654)">
    <g id="Group_105" data-name="Group 105" transform="translate(281 266)">
      <path id="Path_3" data-name="Path 3" d="M28,390.721H38.12c11.7,0,18.876,7.147,18.876,17.485S49.878,425.69,38.12,425.69H28ZM37.807,420.8c9.277,0,13.333-5.192,13.333-12.6s-4.056-12.6-13.333-12.6H33.64v25.2Z"/>
      <path id="Path_4" data-name="Path 4" d="M63.325,425.689H57.632l15.712-35.712h.313l15.765,35.71H83.467l-2.06-4.887H65.382Zm10.12-23.619-5.958,13.841H79.3c.053,0-5.852-13.841-5.852-13.841"/>
      <path id="Path_5" data-name="Path 5" d="M83.811,390.717h5.954l10.226,23.508,9.913-23.508H115.6l-15.5,35.494h-.313Z"/>
      <path id="Rectangle_88" data-name="Rectangle 88" d="M120,390.718h5.64v34.969H120Z"/>
      <path id="Path_6" data-name="Path 6" d="M135.183,416.485a8.644,8.644,0,0,0,8.116,4.735c3.8,0,6.329-1.749,6.329-4.58,0-3.3-2.533-4.429-5.7-5.816l-2.476-1.081c-5.274-2.266-8.853-4.942-8.853-10.4,0-5.351,4.056-9.108,9.961-9.108,4.586,0,7.962,1.8,10.226,5.506l-4.272,2.727a6.311,6.311,0,0,0-5.845-3.39c-2.9,0-4.586,1.646-4.586,4.067,0,2.779,1.739,3.86,5.636,5.553l2.48,1.086c5.429,2.365,9.017,4.782,9.017,10.7,0,6.432-5.062,9.672-11.863,9.672-6.06,0-10.491-2.878-12.914-7.359Z"/>
      <path id="Path_7" data-name="Path 7" d="M167.9,408.2c0-10.344,8.222-17.961,18.5-17.961S204.9,397.856,204.9,408.2s-8.221,17.957-18.505,17.957-18.5-7.613-18.5-17.957m31.155,0c0-7.41-5.217-12.968-12.653-12.968s-12.651,5.558-12.651,12.968,5.217,12.968,12.649,12.968,12.653-5.558,12.653-12.968"/>
      <path id="Path_8" data-name="Path 8" d="M208.192,408.2c0-10.344,8.116-17.961,18.4-17.961,6.647,0,10.65,2.318,13.6,5.558l-3.9,3.6c-2.158-2.314-4.638-4.166-9.86-4.166-7.273,0-12.384,5.558-12.384,12.968s5.164,12.969,13.334,12.969a15.428,15.428,0,0,0,8.7-2.214v-3.96h-9.6V410.1H241.3v11.474c-3.006,2.421-7.167,4.58-13.916,4.58-11.02,0-19.19-7.613-19.19-17.957"/>
      <path id="Rectangle_89" data-name="Rectangle 89" d="M247.653,390.718h5.64v34.969h-5.64Z"/>
      <path id="Path_9" data-name="Path 9" d="M260.635,390.717h5.64V420.8h15.813v4.887H260.635Z"/>
      <path id="Path_10" data-name="Path 10" d="M276.881,390.717h5.954l10.226,23.508,9.913-23.508h5.693l-15.5,35.494h-.313Z"/>
      <path id="Rectangle_90" data-name="Rectangle 90" d="M313.836,390.718h5.64v34.969h-5.64Z"/>
      <path id="Path_11" data-name="Path 11" d="M327.437,390.717h22.831V395.6H333.077v14.5h15.235v4.784H333.077V420.8H351v4.887H327.437Z"/>
    </g>
    <g id="Group_106" data-name="Group 106" transform="translate(281 266)">
      <path id="Path_38" data-name="Path 38" d="M147.024,85.4c0,30.353-20.317,52.369-48.306,52.369S50.412,115.75,50.412,85.4c0-30.618,20.317-52.835,48.306-52.835S147.024,54.779,147.024,85.4M98.718,5.4c-46.122,0-80.9,34.4-80.9,80,0,44.6,35.536,79.541,80.9,79.541,45.106,0,80.443-34.938,80.443-79.541,0-44.86-35.337-80-80.443-80" transform="translate(171.839 192.733)" fill="#ffc900"/>
      <path id="Path_39" data-name="Path 39" d="M128.294,128.274c0,30.09-19.216,50.308-47.85,50.308s-47.85-20.218-47.85-50.308c0-30.35,19.225-50.734,47.85-50.734s47.85,20.385,47.85,50.734M127.4,74.107C115.753,58.37,97.932,50.094,75.479,50.094,32.442,50.094,0,83.71,0,128.274c0,44.323,32.441,77.734,75.478,77.734,22.453,0,40.274-8.267,51.923-24v20.477h31.226V0H127.4Z" transform="translate(27.999 151.654)" fill="#ffc900"/>
    </g>
    <path id="Line_101" data-name="Line 101" d="M0,0H323.139" transform="translate(309.361 644.773)" fill="none" stroke="#f2c933" stroke-width="2"/>
    <path id="Line_102" data-name="Line 102" d="M0,0H323.139" transform="translate(309.361 705)" fill="none" stroke="#f2c933" stroke-width="2"/>
  </g>
</svg>
